<svg xmlns="http://www.w3.org/2000/svg" viewBox="0 0 64 64">
  <rect width="64" height="64" rx="14" fill="#fff2df"/>
  <path d="M31.4 37.2c-5.6 9.2-17.1 9.4-20.7 2.2-3.5-7.1 4.7-13.4 14.3-10.2-6.8-7.2-3.6-17.1 4.2-17.1 7.4 0 9.3 9.6 3.1 16.1 7.8-5.3 17.6-2.2 18.4 5.5.8 7.9-9.9 12.2-19.3 3.5Z" fill="#ed2b82"/>
  <path d="M33.7 36.3c9.4 4.1 16.4-2.3 14.8-8.7-1.7-6.5-10.3-7.5-16.2.1 2.6-8.6-2.2-15.5-8.6-13.7-6.1 1.7-5.9 10.2.4 15.9-8.5-2.3-15.1 2.5-13.4 8.8 1.7 6.2 10.7 6.1 17.2-.8-2.2 8 2.3 14.1 8.3 12.4 5.8-1.6 5-9.5-2.5-14Z" fill="#f24b12" opacity=".88"/>
  <path d="M32 26.8c5.6 0 10.2 4.1 10.2 9.2 0 5.9-5.4 9.6-10.2 14.4C27.2 45.6 21.8 41.9 21.8 36c0-5.1 4.6-9.2 10.2-9.2Z" fill="#fff2df"/>
  <path d="M27.4 36.3c0-2.8 2-5.1 4.6-5.1s4.6 2.3 4.6 5.1c0 2.7-2 5.6-4.6 8.2-2.6-2.6-4.6-5.5-4.6-8.2Z" fill="#344f20"/>
  <path d="M32 31.2c-1.1 2.3-.8 5.1 0 7.5.8-2.4 1.1-5.2 0-7.5Z" fill="#c7da38"/>
  <path d="M22.5 46.5c6.1-2.2 13.7-1.9 20.4 0" fill="none" stroke="#344f20" stroke-width="3" stroke-linecap="round"/>
</svg>
